<svg width="54" height="62" viewBox="0 0 54 62" fill="none" xmlns="http://www.w3.org/2000/svg">
<path fill-rule="evenodd" clip-rule="evenodd" d="M52.115 17.5L27.7797 31.55V59.55L52.115 45.5V17.5ZM27.0003 31L27.0003 61L52.9811 46V16L27.0003 31Z" fill="black"/>
<path d="M42.5871 37C42.5871 38.6569 41.4239 40.6716 39.989 41.5C38.5541 42.3284 37.3909 41.6569 37.3909 40C37.3909 38.3431 38.5541 36.3284 39.989 35.5C41.4239 34.6716 42.5871 35.3431 42.5871 37Z" fill="black"/>
<path fill-rule="evenodd" clip-rule="evenodd" d="M39.9711 8.5L26.9808 1L1 16L13.9904 23.5L14.8564 23L2.73205 16L26.9808 2L39.1051 9L39.9711 8.5Z" fill="black"/>
<path d="M30.446 11C29.0111 11.8284 26.6848 11.8284 25.2499 11C23.815 10.1716 23.815 8.82843 25.2499 8C26.6848 7.17157 29.0111 7.17157 30.446 8C31.8809 8.82843 31.8809 10.1716 30.446 11Z" fill="black"/>
<path d="M18.321 18C16.8861 18.8284 14.5598 18.8284 13.1249 18C11.69 17.1716 11.69 15.8284 13.1249 15C14.5598 14.1716 16.8861 14.1716 18.321 15C19.7559 15.8284 19.7559 17.1716 18.321 18Z" fill="black"/>
<path fill-rule="evenodd" clip-rule="evenodd" d="M13.959 23.5056L26.9834 31.0253L52.9739 16.0196L39.9495 8.5L39.0835 9L51.2419 16.0196L26.9834 30.0253L14.825 23.0056L13.959 23.5056Z" fill="black"/>
<path d="M40.8337 17.0133C39.3982 17.842 37.0684 17.8405 35.6297 17.0099C34.1911 16.1793 34.1885 14.8342 35.6239 14.0054C37.0593 13.1767 39.3892 13.1782 40.8278 14.0088C42.2665 14.8394 42.2691 16.1846 40.8337 17.0133Z" fill="black"/>
<path d="M28.7047 24.0162C27.2693 24.845 24.9395 24.8435 23.5008 24.0129C22.0622 23.1823 22.0596 21.8371 23.495 21.0084C24.9304 20.1796 27.2603 20.1811 28.6989 21.0117C30.1376 21.8423 30.1402 23.1875 28.7047 24.0162Z" fill="black"/>
<path fill-rule="evenodd" clip-rule="evenodd" d="M26.2016 31.55L1.86632 17.5L1.86632 45.5L26.2016 59.55V31.55ZM1 16L1.00029 46L26.9811 61V31L1 16Z" fill="black"/>
<path d="M21.7863 36C21.7863 37.6569 20.6231 38.3284 19.1882 37.5C17.7533 36.6716 16.5901 34.6569 16.5901 33C16.5901 31.3431 17.7533 30.6716 19.1882 31.5C20.6231 32.3284 21.7863 34.3431 21.7863 36Z" fill="black"/>
<path d="M11.3918 44C11.3918 45.6569 10.2286 46.3284 8.79368 45.5C7.35881 44.6716 6.19561 42.6569 6.19561 41C6.19561 39.3431 7.35881 38.6716 8.79368 39.5C10.2286 40.3284 11.3918 42.3431 11.3918 44Z" fill="black"/>
<path d="M1 16L26.9808 1L39.9711 8.5L39.1051 9L26.9808 2L2.73205 16L14.8564 23L13.9904 23.5L1 16ZM1 16L26.9811 31V61L1.00029 46L1 16ZM27.7797 31.55L52.115 17.5V45.5L27.7797 59.55V31.55ZM27.0003 31L52.9811 16V46L27.0003 61L27.0003 31ZM42.5871 37C42.5871 38.6569 41.4239 40.6716 39.989 41.5C38.5541 42.3284 37.3909 41.6569 37.3909 40C37.3909 38.3431 38.5541 36.3284 39.989 35.5C41.4239 34.6716 42.5871 35.3431 42.5871 37ZM30.446 11C29.0111 11.8284 26.6848 11.8284 25.2499 11C23.815 10.1716 23.815 8.82843 25.2499 8C26.6848 7.17157 29.0111 7.17157 30.446 8C31.8809 8.82843 31.8809 10.1716 30.446 11ZM18.321 18C16.8861 18.8284 14.5598 18.8284 13.1249 18C11.69 17.1716 11.69 15.8284 13.1249 15C14.5598 14.1716 16.8861 14.1716 18.321 15C19.7559 15.8284 19.7559 17.1716 18.321 18ZM13.959 23.5056L14.825 23.0056L26.9834 30.0253L51.2419 16.0196L39.0835 9L39.9495 8.5L52.9739 16.0196L26.9834 31.0253L13.959 23.5056ZM40.8337 17.0133C39.3982 17.842 37.0684 17.8405 35.6297 17.0099C34.1911 16.1793 34.1885 14.8342 35.6239 14.0054C37.0593 13.1767 39.3892 13.1782 40.8278 14.0088C42.2665 14.8394 42.2691 16.1846 40.8337 17.0133ZM28.7047 24.0162C27.2693 24.845 24.9395 24.8435 23.5008 24.0129C22.0622 23.1823 22.0596 21.8371 23.495 21.0084C24.9304 20.1796 27.2603 20.1811 28.6989 21.0117C30.1376 21.8423 30.1402 23.1875 28.7047 24.0162ZM1.86632 17.5L26.2016 31.55V59.55L1.86632 45.5L1.86632 17.5ZM21.7863 36C21.7863 37.6569 20.6231 38.3284 19.1882 37.5C17.7533 36.6716 16.5901 34.6569 16.5901 33C16.5901 31.3431 17.7533 30.6716 19.1882 31.5C20.6231 32.3284 21.7863 34.3431 21.7863 36ZM11.3918 44C11.3918 45.6569 10.2286 46.3284 8.79368 45.5C7.35881 44.6716 6.19561 42.6569 6.19561 41C6.19561 39.3431 7.35881 38.6716 8.79368 39.5C10.2286 40.3284 11.3918 42.3431 11.3918 44Z" stroke="black" stroke-width="2" stroke-linejoin="round"/>
</svg>
