<svg width="256" height="302" viewBox="0 0 256 302" fill="none" xmlns="http://www.w3.org/2000/svg">
<g clip-path="url(#clip0_1398_122)">
<path d="M128 137.273C172.183 137.273 208 106.543 208 68.6364C208 30.7295 172.183 0 128 0C83.8172 0 48 30.7295 48 68.6364C48 106.543 83.8172 137.273 128 137.273Z" fill="black"/>
<path d="M234.079 195.339C203.528 175.541 166.285 164.829 127.999 164.829C89.7119 164.829 52.4694 175.541 21.9186 195.339C15.1163 199.812 9.60526 205.568 5.81247 212.163C2.01968 218.756 0.046875 226.011 0.046875 233.364C0.046875 240.717 2.01968 247.971 5.81247 254.565C9.60526 261.16 15.1163 266.916 21.9186 271.388C52.4694 291.187 89.7119 301.899 127.999 301.899C166.285 301.899 203.528 291.187 234.079 271.388C240.881 266.916 246.392 261.16 250.185 254.565C253.978 247.971 255.95 240.717 255.95 233.364C255.95 226.011 253.978 218.756 250.185 212.163C246.392 205.568 240.881 199.812 234.079 195.339Z" fill="black"/>
</g>
<defs>
<clipPath id="clip0_1398_122">
<rect width="256" height="302" fill="white"/>
</clipPath>
</defs>
</svg>
