<svg width="256" height="352" viewBox="0 0 256 352" fill="none" xmlns="http://www.w3.org/2000/svg">
<path d="M128 160C172.183 160 208 124.183 208 80C208 35.8172 172.183 0 128 0C83.8172 0 48 35.8172 48 80C48 124.183 83.8172 160 128 160Z" fill="black"/>
<path d="M234.079 227.68C203.528 204.604 166.285 192.119 127.999 192.119C89.7119 192.119 52.4694 204.604 21.9186 227.68C15.1163 232.894 9.60526 239.603 5.81247 247.289C2.01968 254.974 0.046875 263.43 0.046875 272C0.046875 280.571 2.01968 289.026 5.81247 296.712C9.60526 304.398 15.1163 311.107 21.9186 316.32C52.4694 339.397 89.7119 351.882 127.999 351.882C166.285 351.882 203.528 339.397 234.079 316.32C240.881 311.107 246.392 304.398 250.185 296.712C253.978 289.026 255.95 280.571 255.95 272C255.95 263.43 253.978 254.974 250.185 247.289C246.392 239.603 240.881 232.894 234.079 227.68Z" fill="black"/>
</svg>
